<?xml version="1.0" encoding="utf-8"?>
<!-- Generator: Adobe Illustrator 16.0.0, SVG Export Plug-In . SVG Version: 6.00 Build 0)  -->
<!DOCTYPE svg PUBLIC "-//W3C//DTD SVG 1.1//EN" "http://www.w3.org/Graphics/SVG/1.1/DTD/svg11.dtd">
<svg version="1.1" id="Layer_1" xmlns="http://www.w3.org/2000/svg" xmlns:xlink="http://www.w3.org/1999/xlink" x="0px" y="0px"
	 width="430.001px" height="176.777px" viewBox="0 0 430.001 176.777" enable-background="new 0 0 430.001 176.777"
	 xml:space="preserve">
<path fill-rule="evenodd" clip-rule="evenodd" fill="#EC1B23" d="M239.544,41.088l-2.071-2.532l-1.083-11.084
	c-0.574-2.819-1.832-3.551,1.131-3.551c1.688,0.015,3.774-0.239,2.994-1.545c-1.273-2.118,0.478-3.901,1.688-5.112
	c1.21-1.21,3.647-0.477,5.829-0.732c2.181-0.239,2.914-3.647,2.914-3.647l5.574-0.971c0,0,4.125-2.676,6.307-3.886h8.982
	l3.886,0.732c0,0,0.494-4.38,1.211-5.845C277.639,1.465,280.06,0,281.27,0c1.226,0,5.59,0.971,5.59,0.971L290.507,0l8.249,0.239
	l4.603,2.198l-0.239,3.647l4.363,2.676l4.364,2.915l5.59,1.21l4.125,2.198l2.42,4.857c0,0,2.675,1.704,2.675,2.915
	c0,1.226,0.239,4.379,0.239,6.083c0,1.705,1.705,4.38,3.647,5.112c1.943,0.717,2.182,2.915,2.66,4.125
	c0.493,1.21,2.914,4.379,3.886,6.561c0.972,2.199,2.675,1.465,4.857,1.705c2.182,0.254,1.449,5.59,1.449,5.59l-4.603,0.255
	l-8.489-2.197l-1.465-5.829l-2.182-4.141l-4.619-1.942l-0.717-6.323l-1.465-6.323l-4.363,0.24l-1.211-4.619l0.239-2.421
	l-6.067-0.971l-5.335-3.901l-6.068-0.733l-0.239-4.364l-2.182-3.17l-5.589-0.477l-2.182,3.153l-3.647,0.238
	c-4.586-3.058-3.695-2.277-5.813,2.676c2.117,2.214,0.732,2.851-2.118,2.962c-4.173,0.159-11.451-0.828-15.353,0.207l-2.676,4.858
	l-3.153-0.732l-3.392,3.408l-3.408-0.733l-7.421,4.475c-1.497,0.892-1.035,1.465-0.94,3.185L239.544,41.088z M343.763,44.02
	c0,0,2.5-2.229,2.819-2.229c0.302,0,2.118-1.354,2.118-1.354s2.006-2.118,2.42-2.484c0.43-0.366,0.859-1.401,0.859-1.401
	s1.514-0.191,2.485-0.191c0.972,0,1.036-2.134,1.036-2.134l1.083,1.529c0,0,2.373,2.245,3.089,2.373
	c0.732,0.127,3.409,0.605,4.443,0.971c1.02,0.366,3.026-0.302,3.026-0.302s0.796-2.373,1.036-2.803
	c0.239-0.43,2.485-1.338,2.485-1.338s2.914,1.769,3.216,2.007c0.303,0.255,0.972,0.557,1.943,1.29
	c0.971,0.732,2.42,1.146,2.915,1.449c0.477,0.318,3.153,0,4.236,0c1.099,0,2.611,0.318,3.042,0.621
	c0.43,0.303,0.668,2.915,0.668,3.408c0,0.494-1.401,2.5-1.465,2.867c-0.047,0.366-1.688,2.437-1.688,2.437s-1.942,4.571-2.436,5.048
	c-0.478,0.494-0.605,2.261-0.605,2.261l1.099,1.816l2.612-1.641l1.688-2.675l0.43-4.269l2.851-2.739l3.217-1.163l0.908-2.071
	c0,0,3.28,0,4.491,0.127c1.21,0.128,2.373,0.367,2.676,0.844c0.302,0.494,2.851,0.494,2.851,0.494l3.886,0.239l2.898,1.529
	c0,0,4.682,0,5.16,0.063c0.493,0.064,2.85,1.513,2.85,1.513l1.832,3.966c0,0-1.274,4.204-1.274,5v4.316
	c0,1.1-0.127,1.036-0.127,1.036s-2.548,2.437-2.373,2.93c0.191,0.478,0.971,3.838,0.971,3.838l-2.421,1.465l-0.796,2.739
	l-0.541,4.077l-0.239,1.401c-0.064,0.367-1.879,1.769-1.879,2.071c0,0.303-3.106,0.605-3.106,0.605l0.063,2.627l-0.844,3.902
	l-1.337,1.146l-3.217,5.24l-2.007,3.408l-6.068,2.07c0,0-1.878,2.134-1.942,2.564s-3.265,2.309-3.265,2.309l-3.344,1.593v2.198
	l4.125-0.43l2.978,1.465l-0.127,3.281l-0.176,2.5l-2.245,6.641l-2.484,3.647l-4.682,2.5c0,0-0.717,0.255-3.153,0.972
	c-2.421,0.732-1.083,0.924-0.972,1.354c0.127,0.414,0.733,2.484,0.558,3.217c-0.19,0.733-1.337,1.656-1.64,2.373
	c-0.302,0.733-0.302,1.896-0.541,3.536c-0.255,1.656,0.716,1.035,1.751,1.035c1.036,0,1.147,1.958,1.147,1.958l0.557,3.95
	l-2.676,5.431c0,0-1.21,2.245-1.401,2.611c-0.175,0.366-3.026,2.373-3.329,2.803l-3.886,5.43c0,0-1.274,2.851-1.035,3.521
	c0.255,0.684,0,1.719,0,1.719l-1.02,1.879l-3.105,0.303l-83.563,0.016c0,0-3.265-0.239-3.87-0.351
	c-0.606-0.127-1.338-1.832-2.548-2.564c-1.211-0.732-2.548-2.31-3.52-2.787c-0.972-0.494-2.676-1.705-2.676-1.705l-3.758-1.592
	l-1.337-3.026c0,0-0.845-2.93-1.083-4.38c-0.255-1.465-0.971-2.915-0.971-2.915l-1.227-3.901l-0.239-2.071
	c0,0-1.083,1.832-1.083,2.565c0,0.732-0.366,3.52-0.366,3.52s2.421,4.013,2.66,4.746c0.255,0.733,1.099,3.886,1.337,4.619
	s0.127,3.52,0.605,4.141c0.494,0.605,4.125,1.943,4.125,1.943s1.831,2.31,2.548,2.787c0.733,0.494,4.491,1.227,4.491,1.227
	l1.576,2.915l3.042,1.337l1.816,1.577l87.735,0.127l4.125,0.239l0.35-2.676h1.832l0.717-2.309l1.832-5.224
	c0,0,2.421-1.943,2.787-2.915c0.366-0.987,0.971-2.675,0.971-2.675l2.787-4.746l3.281-3.281l2.054-6.083l-2.054-5.224v-5.112
	l0.972-4.619l3.997-0.844l4.857-5.956l3.026-5.479l1.099-5.829l-1.449-4.746l-1.625-2.883l2.007-1.959l1.815-1.768l3.695-0.668
	l2.675-2.548l1.816-1.768l3.281-6.1l2.006-2.31l1.879-2.5l2.055-4.141l2.739-4.141c0,0,1.449-2.866,1.449-3.296
	c0-0.43-0.047-3.472-0.047-4.013c0-0.558,0.35-2.93,0.35-2.93l1.705-3.408l1.099-1.577c0,0,2.118-2.564,2.118-3.169
	c0-0.621,0-1.958,0.064-2.5c0.063-0.557,1.21-2.739,1.21-2.739l-0.908-3.663l-1.577-3.28l-0.494-2.692c0,0-3.456-1.035-3.822-1.449
	c-0.366-0.43-1.386-0.924-2.118-1.401c-0.733-0.494-2.006-0.988-2.787-1.1c-0.796-0.127-4.188,0.303-5.224,0.542
	c-1.035,0.239-2.357-1.641-2.357-1.641l-4.985-2.373l-4.188,0.732l-4.299,2.915l-0.208-1.481l-0.239-2.548l-5.335-3.774h-3.647
	l-3.153-0.239l-3.646-0.128l-2.787-3.153l-4.858-1.337l-2.054,2.804l-4.619,2.42l-1.577-2.548l-2.309-3.774l-2.182,0.971
	l-4.491,2.931l-3.392,0.605l-2.676,5.462l-5.446,4.507L343.763,44.02z M355.07,38.254c-0.669,0.796-2.739,3.536-3.042,3.838
	c-0.302,0.303,0.558,2.181,1.163,2.437c0.605,0.239,1.688,0.971,1.513,0.668c-0.176-0.302-0.303-1.768-0.844-2.006
	c-0.558-0.255-1.338-0.367-1.21-0.796C352.761,41.965,355.07,38.254,355.07,38.254z M348.094,46.774l-0.605,3.233
	c0,0-1.879,2.31-2.246,2.931c-0.366,0.605-0.732,2.85-0.732,2.85l2.246-2.07c0,0,1.513-1.943,1.577-2.246l0.43-2.07l-1.338,1.576
	L348.094,46.774z M353.191,52.269l-1.64-2.93l0.478-2.198c0.064-0.302,1.704-1.705,1.704-1.705s-0.844,1.959-0.971,2.676
	c-0.111,0.733,0.064,1.465,0.605,2.023c0.558,0.541,0.733,2.007,0.733,2.31C354.099,52.747,353.191,52.269,353.191,52.269z
	 M358.829,57.747c-0.43,0.239-1.752,1.338-1.815,1.768c-0.064,0.414,1.815,1.64,2.054,2.07c0.255,0.414,3.106-0.86,3.106-0.86
	l0.303,1.035c0,0-1.227,1.036-2.246,1.226c-1.035,0.176-2.246-0.923-2.612-0.987c-0.367-0.048-1.64-1.083-2.07-1.386
	c-0.414-0.318-1.688-1.958-0.605-2.134C356.042,58.289,358.829,57.747,358.829,57.747z M368.591,60.359l3.647-1.512l0.605-1.402
	c0,0,2.437,0,2.787-0.318c0.366-0.303,1.035-2.182,1.402-1.577c0.366,0.605,0.796,3.297,0.796,3.297s-2.676,1.512-2.374,1.767
	c0.303,0.239,1.816,3.042,1.401,3.409c-0.43,0.366-2.739,2.006-2.802,2.611c-0.048,0.605-0.781,5.176-0.781,5.176l-0.844-2.675
	c0,0-0.127-2.803,0.239-3.042c0.366-0.255,1.991-1.529,1.991-1.529l0.557-2.437c0,0-1.513-0.429-1.401-0.907
	c0.126-0.494,0.43-1.465,0.732-1.768c0.302-0.303-0.845-0.796-0.845-0.796s-0.558,1.704-1.035,1.768
	c-0.494,0.063-2.246,1.163-2.246,1.163L368.591,60.359z"/>
<path fill-rule="evenodd" clip-rule="evenodd" fill="#EC1B23" d="M11.15,146.518h328.265c7.756,0,18.411-6.291,22.042-15.941
	l10.145-27.043c3.281-8.775-1.243-15.941-10.082-15.941H33.255c-8.838,0-18.745,7.167-22.041,15.941L1.069,130.577
	C-2.211,139.352,2.312,146.518,11.15,146.518z"/>
<path fill-rule="evenodd" clip-rule="evenodd" d="M204.268,105.35h-19.095l-13.33,16.579l0.016-16.579h-20.465l-8.106,25.051h14.237
	l6.482-20.067l-0.016,20.067h10.829l12.486-16.61l-5.383,16.61h14.238L204.268,105.35z M258.225,130.401l4.953-12.485h7.469
	l-1.306,3.838l13.027-0.032l1.736-5.128c0.844-2.5-2.469-4.539-7.358-4.539h-5.144c-3.106,0-6.115,0.828-8.138,2.055
	c-0.048-0.844-1.163-2.022-3.153-1.991h-8.361l-5.813,18.283H258.225z M315.224,124.541l2.229-6.578h12.884l-2.229,6.578H315.224z
	 M345.148,112.054h-12.088l-0.621,1.912c-1.243-1.131-3.615-1.863-6.562-1.863h-9.014c-4.905,0-9.603,2.038-10.447,4.539
	l-3.122,9.205c-0.844,2.5,2.469,4.555,7.374,4.555h9.014c3.106,0,6.115-0.828,8.138-2.07c0.048,0.86,1.163,2.022,3.153,1.991h10.4
	l2.102-6.514c-1.45,0.239-2.262,0.016-1.72-1.258L345.148,112.054z M215.958,124.541h12.884l2.229-6.578h-12.884L215.958,124.541z
	 M245.882,112.054l-3.393,10.496c-0.542,1.274,0.271,1.497,1.72,1.258l-2.102,6.514h-10.399c-1.991,0.032-3.106-1.131-3.154-1.991
	c-2.022,1.242-5.032,2.07-8.138,2.07h-9.014c-4.905,0-8.218-2.054-7.374-4.555l3.122-9.205c0.844-2.501,5.542-4.539,10.447-4.539
	h9.014c2.947,0,5.319,0.732,6.562,1.863l0.62-1.912H245.882z M303.836,112.118l-5.909,18.283H283.69l5.925-18.283H303.836z
	 M291.797,105.35h14.238l-1.465,4.523h-14.238L291.797,105.35z M95.096,112.118H80.858l-5.908,18.283h14.222L95.096,112.118z
	 M83.056,105.35h14.222l-1.465,4.523H81.591L83.056,105.35z M25.914,130.401l9.078-25.115h34.05c4.889,0,8.217,2.039,7.358,4.539
	l-1.481,4.412c-0.573,1.672-2.612,3.631-6.577,4.013c4.538,0.414,5.191,2.644,3.217,7.422l-1.832,4.729H55.488l3.345-8.6H43.48
	l-3.329,8.6H25.914z M45.79,116.323h14.572l1.465-4.284H47.239L45.79,116.323z M102.518,130.401c-4.89,0-8.218-2.054-7.358-4.555
	l3.121-9.205c0.845-2.501,5.542-4.539,10.431-4.539h18.044c4.905,0,8.218,2.038,7.358,4.539l-3.106,9.205
	c-0.859,2.5-5.558,4.555-10.447,4.555H102.518z M107.088,124.541h12.884l2.229-6.578h-12.9L107.088,124.541z"/>
<path fill-rule="evenodd" clip-rule="evenodd" fill="#FFFFFF" d="M203.615,103.486H184.52l-13.33,16.579l0.016-16.579h-20.448
	l-8.107,25.051h14.222l6.498-20.066l-0.032,20.066h10.829l12.487-16.611l-5.367,16.611h14.221L203.615,103.486z M257.572,128.538
	l4.953-12.485h7.469l-1.289,3.837l13.011-0.032l1.752-5.128c0.844-2.5-2.469-4.539-7.375-4.539h-5.144
	c-3.089,0-6.115,0.829-8.122,2.055c-0.047-0.844-1.178-2.022-3.169-1.991h-8.361l-5.813,18.283H257.572z M314.571,122.677
	l2.229-6.577h12.884l-2.213,6.577H314.571z M344.496,110.191h-12.088l-0.621,1.912c-1.227-1.131-3.6-1.863-6.545-1.863h-9.031
	c-4.889,0-9.587,2.038-10.446,4.539l-3.106,9.206c-0.86,2.5,2.453,4.554,7.358,4.554h9.014c3.105,0,6.131-0.828,8.139-2.054
	c0.047,0.844,1.162,2.007,3.153,1.975h10.399l2.118-6.514c-1.449,0.239-2.277,0.016-1.735-1.258L344.496,110.191z M215.304,122.677
	h12.9l2.214-6.577h-12.885L215.304,122.677z M245.229,110.191l-3.392,10.495c-0.542,1.274,0.286,1.498,1.735,1.258l-2.118,6.514
	h-10.399c-1.991,0.032-3.105-1.131-3.153-1.975c-2.007,1.226-5.033,2.054-8.138,2.054h-9.014c-4.905,0-8.218-2.054-7.358-4.554
	l3.105-9.206c0.86-2.5,5.558-4.539,10.448-4.539h9.03c2.946,0,5.319,0.732,6.545,1.863l0.621-1.912H245.229z M303.184,110.255
	l-5.908,18.283h-14.222l5.908-18.283H303.184z M291.159,103.486h14.222l-1.465,4.523h-14.222L291.159,103.486z M94.442,110.255
	H80.221l-5.908,18.283h14.221L94.442,110.255z M82.403,103.486h14.238l-1.466,4.523H80.954L82.403,103.486z M25.277,128.538
	l9.077-25.115h34.034c4.905,0,8.218,2.039,7.374,4.539l-1.497,4.412c-0.573,1.672-2.611,3.631-6.562,4.014
	c4.539,0.414,5.192,2.644,3.201,7.421l-1.831,4.729H54.851l3.328-8.6H42.827l-3.329,8.6H25.277z M45.136,114.459h14.588l1.449-4.284
	H46.585L45.136,114.459z M101.864,128.538c-4.889,0-8.202-2.054-7.358-4.554l3.122-9.206c0.844-2.5,5.542-4.539,10.447-4.539h18.029
	c4.904,0,8.217,2.038,7.374,4.539l-3.122,9.206c-0.845,2.5-5.542,4.554-10.447,4.554H101.864z M106.435,122.677h12.884l2.229-6.577
	h-12.884L106.435,122.677z"/>
<path fill-rule="evenodd" clip-rule="evenodd" fill="#221E1F" d="M236.391,60.167c-1.497,0-2.755,0.526-3.807,1.545
	c-1.051,1.035-1.577,2.278-1.577,3.727c0,1.449,0.525,2.691,1.577,3.727c1.067,1.019,2.325,1.544,3.807,1.544
	c1.513,0,2.787-0.509,3.822-1.544c1.051-1.02,1.561-2.262,1.561-3.727c0-1.465-0.509-2.707-1.561-3.727
	C239.178,60.678,237.903,60.167,236.391,60.167z M236.613,53.431c3.457,0,6.434,1.179,8.903,3.536
	c2.484,2.357,3.711,5.191,3.711,8.473c0,3.344-1.243,6.18-3.727,8.521c-2.5,2.341-5.542,3.504-9.109,3.504
	c-3.551,0-6.578-1.163-9.078-3.52c-2.516-2.357-3.758-5.176-3.758-8.505c0-3.36,1.258-6.195,3.79-8.52
	C229.861,54.594,232.95,53.431,236.613,53.431z M213.967,65.71l7.612,0.176c-0.494,3.694-1.863,6.545-4.093,8.568
	c-2.229,2.006-5.128,3.01-8.712,3.01c-3.647,0-6.688-1.147-9.141-3.424c-2.453-2.294-3.679-5.129-3.679-8.521
	c0-3.409,1.242-6.275,3.743-8.6c2.5-2.326,5.59-3.488,9.253-3.488c3.615,0,6.609,1.147,9.03,3.424
	c1.672,1.577,2.851,3.774,3.551,6.593l-7.804,0.479c-0.86-2.501-2.516-3.759-4.954-3.759c-1.561,0-2.834,0.51-3.837,1.514
	c-1.004,1.003-1.513,2.293-1.513,3.838c0,1.497,0.494,2.739,1.481,3.726c0.987,0.971,2.245,1.465,3.758,1.465
	c1.545,0,2.771-0.43,3.679-1.29C213.266,68.561,213.792,67.319,213.967,65.71z M192.546,54.005V76.89h-7.278V54.005H192.546z
	 M176.795,64.787v6.131h-2.42v5.972h-7.263V62.7c0-2.676,0.876-4.89,2.644-6.641c1.752-1.752,3.981-2.628,6.657-2.628
	c2.946,0,5.399,1.194,7.39,3.568l-5.957,4.077c-0.35-0.876-0.939-1.306-1.784-1.306c-1.115,0-1.688,0.733-1.688,2.182v2.835H176.795
	z M166.014,47.522l-5.001,4.587h-4.475l4.475-4.587H166.014z M162.717,54.005V76.89h-7.263V54.005H162.717z M140.771,60.152V76.89
	h-7.262V54.005h9.333c2.851,0,5.048,0.652,6.609,1.975c1.752,1.481,2.612,3.36,2.612,5.622c0,2.309-1.067,4.268-3.233,5.86
	l4.188,9.428h-7.628l-3.536-7.374v-5.892h0.574c1.529,0,2.293-0.605,2.293-1.848c0-1.083-0.876-1.625-2.644-1.625H140.771z
	 M117.249,60.167c-1.497,0-2.771,0.526-3.822,1.545c-1.051,1.035-1.577,2.278-1.577,3.727c0,1.449,0.525,2.691,1.592,3.727
	c1.051,1.019,2.325,1.544,3.807,1.544c1.497,0,2.771-0.509,3.822-1.544c1.035-1.02,1.561-2.262,1.561-3.727
	c0-1.465-0.526-2.707-1.561-3.727C120.02,60.678,118.746,60.167,117.249,60.167z M117.456,53.431c3.472,0,6.434,1.179,8.918,3.536
	c2.468,2.357,3.711,5.191,3.711,8.473c0,3.344-1.243,6.18-3.743,8.521c-2.501,2.341-5.527,3.504-9.094,3.504
	c-3.551,0-6.577-1.163-9.094-3.52c-2.501-2.357-3.759-5.176-3.759-8.505c0-3.36,1.274-6.195,3.791-8.52
	C110.719,54.594,113.809,53.431,117.456,53.431z M93.742,64.07h6.944c1.481,1.736,2.229,3.551,2.229,5.479
	c0,2.246-0.876,4.125-2.627,5.638c-1.736,1.513-3.902,2.278-6.451,2.278c-3.328,0-6.147-1.179-8.457-3.536
	c-2.325-2.357-3.471-5.24-3.471-8.616c0-3.407,1.178-6.227,3.535-8.488c2.357-2.262,5.303-3.393,8.839-3.393
	c1.21,0,2.547,0.223,4.013,0.685v6.816c-1.147-0.509-2.198-0.765-3.138-0.765c-1.704,0-3.106,0.51-4.188,1.498
	c-1.083,1.003-1.609,2.293-1.609,3.886c0,1.608,0.494,2.898,1.497,3.854c1.004,0.939,2.357,1.417,4.062,1.417
	c1.099,0,1.64-0.287,1.64-0.892c0-0.446-0.366-0.668-1.083-0.668h-1.736V64.07z M78.501,54.005V76.89h-7.278V54.005H78.501z
	 M56.555,60.152V76.89h-7.261V54.005h9.332c2.834,0,5.048,0.652,6.609,1.975c1.735,1.481,2.612,3.36,2.612,5.622
	c0,2.309-1.083,4.268-3.233,5.86l4.189,9.428h-7.629l-3.536-7.374v-5.892h0.573c1.529,0,2.294-0.605,2.294-1.848
	c0-1.083-0.892-1.625-2.644-1.625H56.555z M40.82,64.787v6.131h-2.421v5.972h-7.278V62.7c0-2.676,0.892-4.89,2.644-6.641
	c1.768-1.752,3.981-2.628,6.656-2.628c2.947,0,5.415,1.194,7.406,3.568l-5.972,4.077c-0.334-0.876-0.923-1.306-1.768-1.306
	c-1.131,0-1.688,0.733-1.688,2.182v2.835H40.82z"/>
<g>
	<path fill="#221E1F" d="M12.406,163.286c0-3.781,2.864-6.333,6.627-6.333c2.955,0,4.534,1.67,5.342,3.286l-2.717,1.285
		c-0.404-0.973-1.45-1.78-2.625-1.78c-2.001,0-3.415,1.542-3.415,3.542c0,2.001,1.414,3.543,3.415,3.543
		c1.175,0,2.221-0.808,2.625-1.781l2.717,1.285c-0.79,1.579-2.387,3.286-5.342,3.286C15.27,169.619,12.406,167.049,12.406,163.286z"
		/>
	<path fill="#221E1F" d="M25.108,163.286c0-3.726,2.809-6.333,6.553-6.333c3.745,0,6.535,2.607,6.535,6.333
		c0,3.727-2.79,6.333-6.535,6.333C27.917,169.619,25.108,167.012,25.108,163.286z M34.984,163.286c0-2-1.303-3.542-3.323-3.542
		c-2.038,0-3.341,1.542-3.341,3.542c0,1.982,1.303,3.543,3.341,3.543C33.681,166.829,34.984,165.268,34.984,163.286z"/>
	<path fill="#221E1F" d="M48.125,169.398l-5.176-7.085v7.085h-3.157v-12.244h3.249l4.956,6.737v-6.737h3.176v12.244H48.125z"/>
	<path fill="#221E1F" d="M53.375,169.398v-12.244h8.976v2.753h-5.819v1.909h5.69v2.753h-5.69v4.828H53.375z"/>
	<path fill="#221E1F" d="M64.057,169.398v-12.244h3.157v12.244H64.057z"/>
	<path fill="#221E1F" d="M77.732,169.398l-0.606-1.762h-4.828l-0.606,1.762h-3.58l4.608-12.244h3.965l4.625,12.244H77.732z
		 M74.704,160.275l-1.561,4.607h3.121L74.704,160.275z"/>
	<path fill="#221E1F" d="M90.543,169.398l-5.176-7.085v7.085H82.21v-12.244h3.249l4.956,6.737v-6.737h3.176v12.244H90.543z"/>
	<path fill="#221E1F" d="M99.593,172.354l0.514-1.065c0.478,0.349,1.01,0.551,1.505,0.551c0.44,0,0.863-0.165,0.863-0.514
		c0-0.257-0.166-0.404-0.459-0.404c-0.22,0-0.404,0.11-0.532,0.239l-0.973-0.551l0.386-1.046c-3.304-0.367-5.728-2.809-5.728-6.278
		c0-3.781,2.864-6.333,6.627-6.333c2.955,0,4.534,1.67,5.342,3.286l-2.717,1.285c-0.404-0.973-1.45-1.78-2.625-1.78
		c-2.001,0-3.415,1.542-3.415,3.542c0,2.001,1.414,3.543,3.415,3.543c1.175,0,2.221-0.808,2.625-1.781l2.717,1.285
		c-0.753,1.505-2.258,3.139-4.957,3.268l-0.257,0.624c0.184-0.11,0.385-0.184,0.624-0.184c0.679,0,1.249,0.551,1.249,1.322
		c0,1.009-0.955,1.597-2.111,1.597C100.768,172.959,99.978,172.666,99.593,172.354z"/>
	<path fill="#221E1F" d="M116.81,169.398l-0.606-1.762h-4.828l-0.606,1.762h-3.58l4.608-12.244h3.965l4.625,12.244H116.81z
		 M113.781,160.275l-1.561,4.607h3.121L113.781,160.275z"/>
	<path fill="#221E1F" d="M125.986,169.398v-12.244h8.976v2.753h-5.819v1.909h5.69v2.753h-5.69v2.074h5.819v2.753H125.986z"/>
	<path fill="#221E1F" d="M140.872,163.286c0-3.726,2.809-6.333,6.553-6.333c3.745,0,6.535,2.607,6.535,6.333
		c0,1.689-0.569,3.157-1.542,4.24l0.771,0.937l-2.203,1.762l-0.899-1.102c-0.808,0.312-1.708,0.496-2.662,0.496
		C143.681,169.619,140.872,167.012,140.872,163.286z M148.142,166.755l-1.12-1.358l2.185-1.762l1.156,1.395
		c0.239-0.514,0.386-1.102,0.386-1.744c0-2-1.303-3.542-3.323-3.542c-2.037,0-3.341,1.542-3.341,3.542
		c0,1.982,1.304,3.543,3.341,3.543C147.664,166.829,147.903,166.81,148.142,166.755z"/>
	<path fill="#221E1F" d="M155.556,164.442v-7.288h3.212v7.177c0,1.45,0.862,2.497,2.588,2.497c1.689,0,2.57-1.046,2.57-2.497v-7.177
		h3.194v7.269c0,3.047-1.854,5.195-5.764,5.195C157.41,169.619,155.556,167.453,155.556,164.442z"/>
	<path fill="#221E1F" d="M177.638,169.398l-0.606-1.762h-4.828l-0.606,1.762h-3.58l4.607-12.244h3.965l4.625,12.244H177.638z
		 M174.609,160.275l-1.561,4.607h3.121L174.609,160.275z"/>
	<path fill="#221E1F" d="M182.116,169.398v-12.244h3.157v9.49h4.919v2.753H182.116z"/>
	<path fill="#221E1F" d="M191.826,169.398v-12.244h3.157v12.244H191.826z"/>
	<path fill="#221E1F" d="M197.186,169.398v-12.244h5.14c3.855,0,6.626,2.313,6.626,6.113s-2.771,6.131-6.608,6.131H197.186z
		 M205.721,163.268c0-1.891-1.138-3.359-3.378-3.359h-2v6.737h1.982C204.473,166.645,205.721,165.084,205.721,163.268z"/>
	<path fill="#221E1F" d="M218.845,169.398l-0.606-1.762h-4.828l-0.606,1.762h-3.58l4.608-12.244h3.965l4.625,12.244H218.845z
		 M215.816,160.275l-1.561,4.607h3.121L215.816,160.275z"/>
	<path fill="#221E1F" d="M223.323,169.398v-12.244h5.14c3.855,0,6.626,2.313,6.626,6.113s-2.771,6.131-6.608,6.131H223.323z
		 M231.858,163.268c0-1.891-1.138-3.359-3.378-3.359h-2v6.737h1.982C230.61,166.645,231.858,165.084,231.858,163.268z"/>
	<path fill="#221E1F" d="M236.667,169.398v-12.244h8.976v2.753h-5.819v1.909h5.69v2.753h-5.69v2.074h5.819v2.753H236.667z"/>
</g>
</svg>
